<?xml version="1.0" encoding="UTF-8"?>
<svg width="200px" height="200px" viewBox="0 0 200 200" version="1.1" xmlns="http://www.w3.org/2000/svg" xmlns:xlink="http://www.w3.org/1999/xlink">
    <!-- Generator: Sketch 46.2 (44496) - http://www.bohemiancoding.com/sketch -->
    <title>AACINI Favicon</title>
    <desc>Created with Sketch.</desc>
    <defs></defs>
    <g id="Logos" stroke="none" stroke-width="1" fill="none" fill-rule="evenodd" opacity="0.2">
        <g id="AACINI-Favicon">
            <g id="flechas-copy" transform="translate(5.000000, 0.000000)">
                <path d="M130.537374,124.834343 L102.830303,104.032323 C102.515152,103.80404 102.208081,103.551515 101.923232,103.266667 C99.2080808,100.608081 98.8767677,96.3777778 101.032323,93.4505051 C101.284848,93.0868687 101.575758,92.7313131 101.907071,92.4080808 C102.072727,92.2424242 102.246465,92.0848485 102.420202,91.9434343 L129.755556,72.1111111 C133.070707,69.7050505 137.410101,69.1757576 140.385859,72.0969697 C143.369697,75.0161616 143.478788,79.8222222 140.583838,82.7252525 L129.913131,91.0444444 L182.353535,90.9333333 C186.448485,90.9252525 189.818182,94.3111111 189.834343,98.4848485 C189.856566,102.652525 186.511111,106.092929 182.416162,106.10101 L130.032323,106.218182 L141.278788,114.125253 C144.632323,116.484848 144.127273,121.812121 141.167677,124.755556 C138.216162,127.707071 133.488889,127.674747 130.537374,124.834343 Z" id="Fill-10" fill="#FFEC00"></path>
                <path d="M124.713131,65.4989899 L96.3131313,85.3454545 C95.9959596,85.5737374 95.6565657,85.779798 95.3030303,85.969697 C91.9252525,87.7212121 87.8060606,86.7111111 85.6989899,83.759596 C85.4222222,83.3959596 85.1858586,83.010101 84.9717172,82.6 C84.8707071,82.3858586 84.7757576,82.1737374 84.6969697,81.959596 L74.3737374,49.810101 C73.1191919,45.9050505 73.9717172,41.620202 77.6727273,39.7010101 C81.3737374,37.7838384 85.9737374,39.1737374 87.8363636,42.8262626 L92.4141414,55.5555556 L108.654545,5.6969697 C109.925253,1.80808081 114.193939,-0.339393939 118.163636,0.939393939 C122.133333,2.22626263 124.351515,6.47070707 123.088889,10.369697 L106.862626,60.179798 L117.886869,51.9575758 C121.169697,49.5111111 126.078788,51.6505051 127.957576,55.3737374 C129.834343,59.0989899 128.335354,63.5818182 124.713131,65.4989899 Z" id="Fill-11" fill="#0081C7"></path>
                <path d="M66.3636364,52.0525253 L76.7818182,85.0929293 C76.9070707,85.4646465 77.0020202,85.8424242 77.0727273,86.2464646 C77.7272727,89.9858586 75.5414141,93.6161616 72.0868687,94.7454545 C71.6606061,94.8949495 71.2181818,95.0121212 70.759596,95.0848485 C70.5313131,95.1232323 70.3030303,95.1474747 70.0727273,95.1636364 L36.3070707,95.3757576 C32.2020202,95.4 28.3757576,93.3090909 27.6484848,89.1959596 C26.9313131,85.0929293 29.6383838,81.1151515 33.6787879,80.4383838 L47.1959596,79.8848485 L4.49494949,49.4565657 C1.15757576,47.0727273 0.391919192,42.3535354 2.80808081,38.9515152 C5.22222222,35.5515152 9.93333333,34.7070707 13.2707071,37.0828283 L55.9313131,67.4787879 L51.3939394,54.5070707 C50.0444444,50.640404 53.5575758,46.6 57.6686869,45.9212121 C61.7878788,45.2505051 65.6141414,48.020202 66.3636364,52.0525253 Z" id="Fill-13" fill="#0081C7"></path>
                <path d="M33.6707071,104.341414 L68.3131313,104.024242 C68.7010101,104.008081 69.1030303,104.024242 69.4969697,104.080808 C73.2686869,104.537374 76.1030303,107.694949 76.1737374,111.331313 C76.1979798,111.781818 76.1737374,112.232323 76.1191919,112.688889 C76.0868687,112.927273 76.040404,113.155556 75.9919192,113.375758 L66.3414141,145.739394 C65.1656566,149.660606 62.040404,152.715152 57.9050505,152.210101 C53.7616162,151.705051 50.7555556,147.955556 51.2848485,143.892929 L54.7010101,130.8 L13.1292929,162.761616 C9.87878788,165.254545 5.14343434,164.614141 2.59393939,161.309091 C0.0444444444,158.010101 0.614141414,153.250505 3.85656566,150.757576 L45.389899,118.822222 L31.6505051,119.373737 C27.5555556,119.539394 24.7131313,115.00202 25.2747475,110.866667 C25.8262626,106.731313 29.5979798,103.882828 33.6707071,104.341414 Z" id="Fill-14" fill="#0081C7"></path>
                <path d="M74.5313131,149.874747 L85.6585859,117.068687 C85.7777778,116.69899 85.9272727,116.327273 86.1010101,115.963636 C87.789899,112.555556 91.7030303,110.921212 95.1515152,112.058586 C95.5858586,112.183838 96.0121212,112.349495 96.4222222,112.563636 C96.6282828,112.666667 96.8343434,112.783838 97.0222222,112.90303 L124.389899,132.694949 C127.713131,135.10101 129.559596,139.054545 127.713131,142.79596 C125.866667,146.535354 121.335354,148.137374 117.674747,146.29899 L106.444444,138.755556 L122.89899,188.541414 C124.185859,192.432323 122.014141,196.684848 118.060606,198.00404 C114.09899,199.321212 109.79798,197.222222 108.513131,193.331313 L92.0666667,143.591919 L88.0585859,156.747475 C86.8585859,160.660606 81.6424242,161.844444 77.9171717,159.959596 C74.2,158.064646 72.7575758,153.567677 74.5313131,149.874747 Z" id="Fill-9" fill="#0081C7"></path>
            </g>
        </g>
    </g>
</svg>