<?xml version="1.0" encoding="UTF-8"?>
<svg width="290px" height="114px" viewBox="0 0 290 114" version="1.1" xmlns="http://www.w3.org/2000/svg" xmlns:xlink="http://www.w3.org/1999/xlink">
    <!-- Generator: Sketch 46.2 (44496) - http://www.bohemiancoding.com/sketch -->
    <title>COINI</title>
    <desc>Created with Sketch.</desc>
    <defs></defs>
    <g id="Logos" stroke="none" stroke-width="1" fill="none" fill-rule="evenodd">
        <g id="COINI" transform="translate(-53.000000, -15.000000)">
            <g transform="translate(53.000000, 15.000000)">
                <path d="M251.620337,13.7159763 C254.100885,5.76780136 261.505618,0 270.254658,0 C281.035788,0 289.775621,8.75826401 289.775621,19.5621302 C289.775621,30.3659963 281.035788,39.1242604 270.254658,39.1242604 C261.505618,39.1242604 254.100885,33.356459 251.620337,25.408284 L171.090066,25.408284 C168.609519,33.356459 161.204786,39.1242604 152.455745,39.1242604 C141.674615,39.1242604 132.934783,30.3659963 132.934783,19.5621302 C132.934783,8.75826401 141.674615,0 152.455745,0 C161.204786,0 168.609519,5.76780136 171.090066,13.7159763 L251.620337,13.7159763 L251.620337,13.7159763 Z M152.455745,29.6804734 C158.032192,29.6804734 162.552795,25.1503368 162.552795,19.5621302 C162.552795,13.9739235 158.032192,9.44378698 152.455745,9.44378698 C146.879299,9.44378698 142.358696,13.9739235 142.358696,19.5621302 C142.358696,25.1503368 146.879299,29.6804734 152.455745,29.6804734 Z M270.254658,29.6804734 C275.831105,29.6804734 280.351708,25.1503368 280.351708,19.5621302 C280.351708,13.9739235 275.831105,9.44378698 270.254658,9.44378698 C264.678212,9.44378698 260.157609,13.9739235 260.157609,19.5621302 C260.157609,25.1503368 264.678212,29.6804734 270.254658,29.6804734 Z" id="Combined-Shape" fill="#000000"></path>
                <ellipse id="Verde" fill="#97D429" cx="152.455745" cy="19.5621302" rx="10.0970497" ry="10.1183432"></ellipse>
                <ellipse id="Naranja" fill="#FC6B21" cx="270.254658" cy="19.5621302" rx="10.0970497" ry="10.1183432"></ellipse>
                <rect id="I" fill="#000000" x="141.685559" y="46.3195266" width="22.2135093" height="66.7810651"></rect>
                <rect id="I" fill="#000000" x="258.811335" y="46.3195266" width="22.2135093" height="66.7810651"></rect>
                <polygon id="N" fill="#000000" points="198.453416 46.3499136 198.453416 46.3195266 176.239907 46.3195266 176.239907 113.100592 198.453416 113.100592 198.453416 77.5235006 224.256988 113.09403 224.256988 113.100592 246.470497 113.100592 246.470497 46.3195266 224.256988 46.3195266 224.256988 81.9464032"></polygon>
                <path d="M65.9780427,75.5667369 C68.341356,59.4041814 82.1406942,47 98.8103448,47 C117.140485,47 132,61.9984609 132,80.5 C132,99.0015391 117.140485,114 98.8103448,114 C90.7539282,114 83.3679518,111.102663 77.6193783,106.283995 C82.7440701,101.52736 86.8644545,95.6854697 89.6228117,89.1193891 C91.9340291,92.0335978 95.4881419,93.9 99.4741379,93.9 C106.439591,93.9 112.086207,88.2005849 112.086207,81.17 C112.086207,74.1394151 106.439591,68.44 99.4741379,68.44 C94.0565317,68.44 89.4367501,71.8878343 87.6510808,76.7281748 C84.9002245,94.2941284 71.8876229,108.418655 55,112.66 L55,112.613808 C51.4841809,113.518717 47.7982953,114 44,114 C19.699471,114 0,94.300529 0,70 C0,45.699471 19.699471,26 44,26 C59.5493785,26 73.214881,34.0658321 81.0408085,46.2417975 C74.3338374,49.6827331 68.7637754,55.0261373 65.0430532,61.5595791 C61.6954118,53.22118 53.535296,47.3333333 44,47.3333333 C31.4815457,47.3333333 21.3333333,57.4815457 21.3333333,70 C21.3333333,82.5184543 31.4815457,92.6666667 44,92.6666667 C54.5977078,92.6666667 63.4967217,85.393693 65.9780414,75.5667459 L65.9780427,75.5667369 Z" id="Combined-Shape" fill="#000000"></path>
            </g>
        </g>
    </g>
</svg>